<svg width="157" height="73" viewBox="0 0 157 73" fill="none" xmlns="http://www.w3.org/2000/svg">
<g clip-path="url(#clip0_66_12626)">
<path d="M8.69019 72.4997V44.5071H12.3896V47.9245C13.0464 46.6629 13.9332 45.6945 15.0427 45.0191C16.1559 44.3438 17.5102 44.0024 19.1058 44.0024C20.5009 44.0024 21.7217 44.2919 22.7644 44.867C23.8071 45.4421 24.6791 46.2251 25.3692 47.2084C26.0594 48.1954 26.5752 49.3605 26.9165 50.7075C27.2579 52.0544 27.4286 53.4867 27.4286 55.0006C27.4286 56.5145 27.2579 57.9765 26.9165 59.3049C26.5752 60.6332 26.0594 61.7909 25.3692 62.7854C24.6791 63.7761 23.8145 64.5627 22.7755 65.1379C21.7366 65.713 20.5121 66.0024 19.1058 66.0024C17.5102 66.0024 16.1559 65.6648 15.0427 64.9857C13.9295 64.3104 13.0464 63.3383 12.3896 62.0804V72.4997H8.69019ZM12.3896 56.7742C12.3896 58.585 12.8868 60.0804 13.8776 61.2603C14.8683 62.4403 16.2969 63.0303 18.1596 63.0303C19.7291 63.0303 21.013 62.5924 22.0112 61.713C23.0093 60.8336 23.5102 59.687 23.5102 58.2659V51.7501C23.5102 50.329 23.0093 49.175 22.0112 48.2919C21.013 47.4088 19.7291 46.9635 18.1596 46.9635C16.2969 46.9635 14.8683 47.5572 13.8776 48.7446C12.8868 49.9319 12.3896 51.431 12.3896 53.2381V56.778V56.7742Z" fill="#DAFF01"/>
<path d="M31.05 55.0043C31.05 53.4088 31.243 51.9319 31.6252 50.5702C32.0074 49.2084 32.5899 48.0507 33.3766 47.0896C34.1632 46.1323 35.1428 45.3754 36.3265 44.8262C37.5102 44.277 38.8979 44.0024 40.4935 44.0024C42.089 44.0024 43.4731 44.277 44.653 44.8262C45.833 45.3754 46.8089 46.1286 47.5844 47.0896C48.3599 48.0507 48.9424 49.2084 49.3321 50.5702C49.7217 51.9319 49.9146 53.4088 49.9146 55.0043C49.9146 56.5998 49.7217 58.11 49.3321 59.4496C48.9424 60.7891 48.3599 61.9431 47.5844 62.9078C46.8089 63.8726 45.8256 64.6295 44.6419 65.1787C43.4545 65.7279 42.0742 66.0024 40.4935 66.0024C38.9128 66.0024 37.5065 65.7279 36.3265 65.1787C35.1465 64.6295 34.1632 63.8726 33.3766 62.9078C32.5899 61.9431 32.0074 60.7891 31.6252 59.4496C31.243 58.11 31.05 56.6258 31.05 55.0043ZM34.9721 58.2622C34.9721 58.9746 35.1243 59.624 35.4248 60.2139C35.7254 60.8039 36.1224 61.3049 36.6196 61.713C37.1168 62.1212 37.6957 62.444 38.3673 62.6778C39.0352 62.9115 39.7439 63.0303 40.4972 63.0303C41.2504 63.0303 41.9369 62.9115 42.6048 62.6778C43.2727 62.444 43.8552 62.1212 44.3525 61.713C44.846 61.3049 45.2467 60.8039 45.5473 60.2139C45.8478 59.624 46 58.9746 46 58.2622V51.7464C46 51.034 45.8478 50.3846 45.5473 49.7947C45.2467 49.2047 44.8497 48.7037 44.3525 48.2882C43.8552 47.8726 43.2764 47.546 42.6048 47.3123C41.9369 47.0785 41.2319 46.9598 40.4972 46.9598C39.7625 46.9598 39.0538 47.0785 38.3784 47.3123C37.7031 47.546 37.1168 47.8726 36.6233 48.2882C36.1298 48.7037 35.7291 49.2084 35.4285 49.7947C35.128 50.3846 34.9758 51.034 34.9758 51.7464V58.2622H34.9721Z" fill="#DAFF01"/>
<path d="M53.5325 55.0046C53.5325 53.4907 53.7032 52.0584 54.0445 50.7115C54.3859 49.3646 54.9017 48.1957 55.5844 47.2124C56.2709 46.2254 57.1354 45.4462 58.1818 44.8711C59.2282 44.2959 60.4527 44.0065 61.8479 44.0065C63.4137 44.0065 64.757 44.3404 65.8813 45.0121C67.0056 45.6837 67.8961 46.6558 68.5529 47.9286V37.4907H72.2523V65.5056H68.5529V62.0881C67.8961 63.3497 67.0204 64.3182 65.9221 64.9935C64.8238 65.6688 63.4991 66.0102 61.9481 66.0102C60.5232 66.0102 59.2876 65.7208 58.2338 65.1456C57.18 64.5705 56.3043 63.7839 55.6067 62.7931C54.9091 61.8024 54.3896 60.6373 54.0445 59.3052C53.7032 57.9731 53.5325 56.5408 53.5325 55.0121V55.0046ZM57.4545 58.2625C57.4545 58.975 57.5918 59.6243 57.8664 60.2143C58.141 60.8043 58.5195 61.3052 59.0019 61.7134C59.4842 62.1215 60.0445 62.4443 60.6865 62.6781C61.3284 62.9119 62.0371 63.0306 62.8163 63.0306C64.6753 63.0306 66.0965 62.4406 67.0835 61.2607C68.0668 60.0807 68.5603 58.5853 68.5603 56.7746V53.2347C68.5603 51.4239 68.0668 49.9249 67.0835 48.7412C66.1002 47.5538 64.679 46.9601 62.8163 46.9601C62.0519 46.9601 61.3469 47.0788 60.6976 47.3126C60.0482 47.5464 59.4842 47.8729 59.0019 48.2885C58.5195 48.7041 58.141 49.2087 57.8664 49.795C57.5918 50.385 57.4545 51.0343 57.4545 51.7468V58.2625Z" fill="#DAFF01"/>
<path d="M76.9981 55.1641C76.9981 53.4869 77.1948 51.9581 77.5918 50.5704C77.9888 49.1826 78.5714 48.0101 79.3432 47.0527C80.115 46.0954 81.0649 45.3459 82.1929 44.8115C83.3209 44.2772 84.5936 44.0063 86.0185 44.0063C87.1168 44.0063 88.1558 44.1511 89.1317 44.4405C90.1076 44.7299 90.9647 45.1752 91.7031 45.7763C92.4378 46.3811 93.0426 47.1492 93.5102 48.0806C93.9777 49.0119 94.2671 50.114 94.3747 51.3904H90.6753C90.5936 50.5444 90.4155 49.8394 90.1447 49.2679C89.8738 48.6965 89.5139 48.2438 89.0723 47.8987C88.6308 47.5574 88.1298 47.3162 87.5658 47.1752C87.0055 47.0342 86.423 46.9637 85.8181 46.9637C85.2133 46.9637 84.5862 47.0676 84.0111 47.2754C83.4359 47.4832 82.9128 47.7948 82.4452 48.2104C81.9777 48.626 81.6066 49.1418 81.332 49.7577C81.0575 50.3737 80.9202 51.0935 80.9202 51.9099V58.0843C80.9202 58.8227 81.05 59.5017 81.3098 60.1251C81.5695 60.7485 81.9295 61.2717 82.3821 61.6947C82.8385 62.1177 83.358 62.4442 83.948 62.6817C84.538 62.9154 85.1725 63.0342 85.8552 63.0342C87.2207 63.0342 88.3562 62.6668 89.269 61.9284C90.1818 61.19 90.7013 60.0397 90.8348 58.4702H94.5343C94.4007 59.7577 94.0705 60.8746 93.551 61.8171C93.0278 62.7633 92.3821 63.5462 91.6141 64.1696C90.8423 64.793 89.974 65.2568 89.0018 65.5574C88.0296 65.8579 87.0092 66.0101 85.9369 66.0101C84.3933 66.0101 83.0686 65.7429 81.9591 65.2049C80.8534 64.6705 79.9257 63.9099 79.1799 62.934C78.4341 61.9544 77.8849 60.8078 77.5287 59.4943C77.1725 58.1807 76.9944 56.741 76.9944 55.1715L76.9981 55.1641Z" fill="#DAFF01"/>
<path d="M97.6882 59.7318C97.6882 58.0843 98.2114 56.6743 99.2578 55.4943C100.304 54.318 101.874 53.6353 103.963 53.4461L110.798 52.8115V51.1232C110.798 50.3069 110.694 49.6279 110.486 49.0935C110.278 48.5555 109.981 48.1325 109.603 47.8171C109.221 47.5017 108.761 47.2791 108.226 47.1529C107.688 47.0268 107.095 46.9637 106.438 46.9637C105.124 46.9637 104.074 47.2568 103.291 47.8468C102.508 48.4368 102.115 49.4089 102.115 50.7633H98.4155C98.4155 49.7726 98.6307 48.8635 99.0574 48.0397C99.4842 47.216 100.059 46.4999 100.783 45.8987C101.506 45.2939 102.352 44.8301 103.332 44.4999C104.308 44.1733 105.358 44.0063 106.482 44.0063C107.607 44.0063 108.657 44.1511 109.629 44.4405C110.601 44.7299 111.447 45.1603 112.163 45.7392C112.879 46.3143 113.436 47.0564 113.833 47.9618C114.23 48.8672 114.427 49.9358 114.427 51.1678V62.3292H117.566V65.5054H111.291L111.21 61.6242H111.05C110.475 63.1121 109.621 64.2141 108.497 64.934C107.373 65.6538 106.022 66.0101 104.456 66.0101C103.41 66.0101 102.464 65.8505 101.621 65.5277C100.775 65.2049 100.044 64.7299 99.4285 64.0991C98.8793 63.5499 98.4526 62.8932 98.1521 62.1288C97.8515 61.3644 97.6994 60.5666 97.6994 59.7355L97.6882 59.7318ZM101.61 60.2327C101.61 61.1974 101.944 61.9062 102.616 62.3551C103.287 62.8041 104.211 63.0305 105.391 63.0305C107.069 63.0305 108.39 62.4331 109.354 61.2383C110.319 60.0435 110.801 58.4999 110.801 56.6075V55.6613L103.339 56.3514C102.575 56.4071 102.096 56.6075 101.9 56.9563C101.707 57.305 101.607 57.78 101.607 58.3848V60.2364L101.61 60.2327Z" fill="#DAFF01"/>
<path d="M119.321 58.8669H123.02C123.072 60.2621 123.573 61.3048 124.519 61.9949C125.466 62.6851 126.582 63.0302 127.866 63.0302C129.15 63.0302 130.171 62.7556 131.083 62.2064C131.996 61.6573 132.453 60.8595 132.453 59.8131C132.453 58.9671 132.178 58.2918 131.629 57.7834C131.08 57.2751 130.1 56.8855 128.694 56.6183L125.236 55.9133C123.506 55.5497 122.174 54.8855 121.243 53.9133C120.312 52.9411 119.844 51.6313 119.844 49.9801C119.844 49.1638 120.03 48.3882 120.397 47.6573C120.764 46.9263 121.295 46.2918 121.985 45.7574C122.675 45.2194 123.488 44.7964 124.419 44.481C125.351 44.1656 126.393 44.0098 127.547 44.0098C128.538 44.0098 129.506 44.1396 130.453 44.4031C131.399 44.6628 132.241 45.071 132.987 45.6202C133.729 46.1693 134.326 46.8706 134.775 47.7203C135.224 48.5701 135.462 49.5868 135.488 50.7667H131.788C131.736 49.3715 131.302 48.392 130.49 47.8205C129.677 47.2491 128.709 46.9671 127.584 46.9671C126.46 46.9671 125.454 47.2454 124.657 47.7983C123.859 48.3548 123.462 49.0784 123.462 49.9727C123.462 50.8001 123.696 51.442 124.163 51.9022C124.631 52.3623 125.384 52.6999 126.427 52.9189L129.967 53.661C132.063 54.0988 133.618 54.8075 134.631 55.7834C135.644 56.7593 136.152 58.0914 136.152 59.7797C136.152 60.6628 135.955 61.4866 135.558 62.2435C135.161 63.0005 134.594 63.6498 133.848 64.1953C133.106 64.737 132.223 65.1786 131.202 65.5126C130.182 65.8465 129.057 66.0135 127.822 66.0135C126.586 66.0135 125.544 65.8613 124.519 65.5608C123.495 65.2602 122.601 64.8113 121.829 64.2138C121.061 63.6164 120.456 62.8743 120.015 61.9801C119.573 61.0895 119.339 60.0543 119.313 58.8743L119.321 58.8669Z" fill="#DAFF01"/>
<path d="M138.623 47.6649V44.5072H142.122V37.4868H145.822V44.5072H150.608V47.6649H145.822V62.3254H150.608V65.5017H142.122V47.6612H138.623V47.6649Z" fill="#DAFF01"/>
<path d="M97.1169 11.6763C96.3302 11.6763 95.6735 11.9175 95.154 12.3998C94.6345 12.8822 94.3748 13.5093 94.3748 14.2774V14.7746H99.8701V14.2774C99.8701 13.5093 99.6104 12.8822 99.0909 12.3998C98.5714 11.9175 97.9109 11.6763 97.1132 11.6763H97.1169Z" fill="#DAFF01"/>
<path d="M46.0853 11.6761C45.1874 11.6761 44.4823 11.9247 43.9703 12.4256C43.4545 12.9265 43.1985 13.5685 43.1985 14.3551V18.3106C43.1985 19.0972 43.4582 19.7429 43.9777 20.2475C44.4972 20.7521 45.1985 21.0045 46.089 21.0045C47.1911 21.0045 47.9925 20.6742 48.4935 20.0137C48.9944 19.3533 49.2467 18.4776 49.2467 17.3866V15.2939C49.2467 14.1956 48.9944 13.3161 48.4935 12.6594C47.9925 12.0026 47.1911 11.6724 46.089 11.6724L46.0853 11.6761Z" fill="#DAFF01"/>
<path d="M17.4917 12.3479C16.924 11.9026 16.2079 11.6763 15.347 11.6763C14.4862 11.6763 13.7737 11.9026 13.2023 12.359C12.6309 12.8154 12.3489 13.4648 12.3489 14.3034V18.3664C12.3489 19.205 12.6346 19.8581 13.2023 20.3182C13.77 20.7783 14.4862 21.0084 15.347 21.0084C16.2079 21.0084 16.9203 20.7857 17.4917 20.3368C18.0595 19.8915 18.3452 19.2347 18.3452 18.3664V14.3034C18.3452 13.4462 18.0595 12.7932 17.4917 12.3442V12.3479Z" fill="#DAFF01"/>
<path d="M58.9202 18.5446V19.7505C58.9202 20.1698 59.1132 20.4852 59.4954 20.693C59.8813 20.9045 60.3748 21.0084 60.9833 21.0084C61.859 21.0084 62.5492 20.7004 63.0538 20.0808C63.5584 19.4611 63.8108 18.7116 63.8108 17.8285V17.2793L59.6957 17.6392C59.1874 17.6912 58.9276 17.9954 58.9165 18.5483L58.9202 18.5446Z" fill="#DAFF01"/>
<path d="M124.044 12.3479C123.477 11.9026 122.761 11.6763 121.9 11.6763C121.039 11.6763 120.326 11.9026 119.755 12.359C119.187 12.8154 118.902 13.4648 118.902 14.3034V18.3664C118.902 19.205 119.187 19.8581 119.755 20.3182C120.323 20.7783 121.039 21.0084 121.9 21.0084C122.761 21.0084 123.473 20.7857 124.044 20.3368C124.612 19.8915 124.898 19.2347 124.898 18.3664V14.3034C124.898 13.4462 124.612 12.7932 124.044 12.3442V12.3479Z" fill="#DAFF01"/>
<path d="M0 0.5V32.1252H137.032V0.5H0ZM21.4768 19.3312C21.1874 20.2254 20.7607 20.9972 20.2004 21.6503C19.6401 22.3033 18.9536 22.8043 18.141 23.1531C17.3284 23.5019 16.397 23.6763 15.3506 23.6763C14.3043 23.6763 13.3766 23.5019 12.564 23.1531C11.7514 22.8043 11.0649 22.3033 10.5083 21.6503C9.95176 20.9972 9.52505 20.2254 9.2282 19.3312C8.93507 18.4369 8.78664 17.4425 8.78664 16.3404C8.78664 15.2384 8.93507 14.244 9.2282 13.3423C9.52134 12.4443 9.94805 11.6725 10.5083 11.0232C11.0649 10.3738 11.7514 9.87662 12.564 9.52783C13.3766 9.17904 14.3043 9.00464 15.3506 9.00464C16.397 9.00464 17.3284 9.17904 18.141 9.52783C18.9536 9.87662 19.6401 10.3738 20.2004 11.0232C20.7607 11.6725 21.1837 12.4443 21.4768 13.3423C21.7699 14.2403 21.9147 15.2384 21.9147 16.3404C21.9147 17.4425 21.7699 18.4369 21.4768 19.3312ZM36.898 23.3386H33.4657V14.4109C33.4657 13.5872 33.2913 12.949 32.9425 12.4926C32.5937 12.0362 32.0074 11.8098 31.1874 11.8098C30.2412 11.8098 29.4991 12.1252 28.9685 12.756C28.4378 13.3868 28.1707 14.2143 28.1707 15.2421V23.3386H24.7384V9.3423H28.1707V11.3683C28.59 10.6187 29.1391 10.0362 29.8145 9.6243C30.4898 9.21243 31.321 9.00835 32.3154 9.00835C33.8887 9.00835 35.0464 9.46475 35.7885 10.3813C36.5306 11.2978 36.9017 12.5594 36.9017 14.1698V23.3386H36.898ZM52.6753 23.3386H49.243V21.4499C48.8052 22.1475 48.256 22.6929 47.5956 23.0863C46.9351 23.4796 46.1373 23.6763 45.1985 23.6763C44.2597 23.6763 43.4583 23.4833 42.7607 23.1011C42.0631 22.7189 41.4842 22.1957 41.0204 21.5315C40.5566 20.8711 40.2078 20.0955 39.9777 19.205C39.7477 18.3145 39.6289 17.3609 39.6289 16.3442C39.6289 15.3275 39.7403 14.3813 39.9629 13.4833C40.1855 12.5853 40.5269 11.8061 40.9796 11.1494C41.436 10.4926 42.0111 9.9731 42.705 9.5872C43.4026 9.2013 44.2115 9.01206 45.1429 9.01206C46.0742 9.01206 46.8794 9.20872 47.5622 9.60204C48.2412 9.99536 48.8015 10.5408 49.243 11.2384V4.66327H52.6753V23.3386ZM69.551 23.3386H64.1484L64.1225 21.1679H64C63.5993 21.936 63.0649 22.5482 62.397 22.9972C61.7328 23.4499 60.8572 23.6725 59.7774 23.6725C59.1354 23.6725 58.5455 23.5649 58.0148 23.3497C57.4842 23.1345 57.0167 22.8377 56.6123 22.4518C56.2115 22.0659 55.8998 21.6169 55.6809 21.0974C55.462 20.5779 55.3544 19.9991 55.3544 19.3534C55.3544 18.218 55.7477 17.2384 56.5343 16.4184C57.321 15.5983 58.4564 15.1197 59.9406 14.9824L63.8145 14.6596V13.7468C63.8145 13.0121 63.6178 12.4852 63.2245 12.1586C62.8312 11.8321 62.2931 11.6688 61.6141 11.6688C60.9351 11.6688 60.3488 11.8358 59.911 12.1698C59.4731 12.5037 59.2542 12.9935 59.2542 13.6391H55.8219C55.8405 12.8711 56.0037 12.1994 56.3191 11.6206C56.6308 11.0455 57.0464 10.5631 57.5659 10.1809C58.0853 9.79499 58.7013 9.50557 59.4174 9.30148C60.1336 9.10111 60.9091 9.00093 61.7514 9.00093C63.4323 9.00093 64.7607 9.40909 65.7328 10.2217C66.705 11.0343 67.1948 12.2291 67.1948 13.8024V20.667H69.5547V23.3349L69.551 23.3386ZM88.2078 20.7857C87.8776 21.4239 87.4434 21.9583 86.9128 22.3887C86.3785 22.8191 85.7774 23.1382 85.1021 23.3534C84.4267 23.5686 83.7032 23.6763 82.9351 23.6763C81.8887 23.6763 80.9759 23.4981 80.1892 23.1382C79.4026 22.7783 78.7421 22.2848 78.2004 21.6503C77.6586 21.0158 77.2579 20.2551 76.987 19.372C76.7199 18.4889 76.5863 17.5056 76.5863 16.4221C76.5863 15.2681 76.7347 14.2328 77.0278 13.32C77.321 12.4035 77.744 11.628 78.2931 10.9861C78.8423 10.3479 79.4991 9.85807 80.2672 9.5167C81.0353 9.17532 81.8998 9.00835 82.8646 9.00835C83.5993 9.00835 84.3006 9.10482 84.9722 9.29777C85.6438 9.49072 86.2486 9.79128 86.7904 10.2032C87.3321 10.615 87.77 11.1382 88.1039 11.7801C88.4379 12.4184 88.6456 13.1827 88.7273 14.0659H85.295C85.2059 13.1716 84.9314 12.5519 84.4675 12.2032C84.0074 11.8544 83.4249 11.68 82.7273 11.68C82.0297 11.68 81.4249 11.9026 80.9128 12.3516C80.4007 12.7968 80.1484 13.487 80.1484 14.4147V18.2625C80.1484 19.1197 80.3896 19.795 80.8757 20.2811C81.3581 20.7672 81.9889 21.0121 82.757 21.0121C83.5251 21.0121 84.1336 20.8302 84.5789 20.4629C85.0241 20.0955 85.2987 19.4499 85.4063 18.5186H88.8386C88.7495 19.3942 88.538 20.1512 88.2078 20.7894V20.7857ZM103.384 17.4388H94.3748V18.3627C94.3748 19.2013 94.6494 19.8544 95.2022 20.3145C95.7514 20.7746 96.4045 21.0046 97.1577 21.0046C97.9109 21.0046 98.5232 20.808 98.9981 20.4147C99.4731 20.0213 99.7551 19.4685 99.8442 18.7523H103.276C103.054 20.307 102.397 21.5167 101.31 22.3776C100.223 23.2384 98.8238 23.6725 97.1169 23.6725C96.1262 23.6725 95.2393 23.4944 94.4601 23.1345C93.6772 22.7783 93.0167 22.2774 92.4787 21.6317C91.9369 20.9898 91.5251 20.2143 91.2393 19.3126C90.9536 18.4109 90.8089 17.4091 90.8089 16.3108C90.8089 15.2124 90.961 14.2143 91.2653 13.3126C91.5696 12.4147 91.9963 11.6466 92.5455 11.0083C93.0946 10.3701 93.7588 9.87662 94.5343 9.52783C95.3098 9.17904 96.1744 9.00464 97.1206 9.00464C98.0668 9.00464 98.9314 9.17533 99.7032 9.51299C100.475 9.85436 101.139 10.3182 101.688 10.9156C102.237 11.5093 102.66 12.218 102.95 13.0417C103.239 13.8655 103.388 14.7523 103.388 15.7096V17.4388H103.384ZM113.944 12.0213H109.558V23.3386H106.126V9.3423H113.944V12.025V12.0213ZM128.026 19.3275C127.737 20.2217 127.31 20.9935 126.75 21.6466C126.189 22.2996 125.503 22.8006 124.69 23.1494C123.874 23.4981 122.946 23.6725 121.9 23.6725C120.853 23.6725 119.926 23.4981 119.113 23.1494C118.301 22.8006 117.614 22.2996 117.058 21.6466C116.501 20.9935 116.074 20.2217 115.777 19.3275C115.484 18.4332 115.336 17.4388 115.336 16.3367C115.336 15.2347 115.484 14.2403 115.777 13.3386C116.071 12.4406 116.497 11.6688 117.058 11.0195C117.614 10.3701 118.301 9.87291 119.113 9.52412C119.926 9.17532 120.853 9.00093 121.9 9.00093C122.946 9.00093 123.878 9.17532 124.69 9.52412C125.503 9.87291 126.189 10.3701 126.75 11.0195C127.31 11.6688 127.733 12.4406 128.026 13.3386C128.315 14.2365 128.464 15.2347 128.464 16.3367C128.464 17.4388 128.319 18.4332 128.026 19.3275Z" fill="#DAFF01"/>
<path d="M149.328 15.0234C145.451 15.0234 142.301 11.8694 142.301 7.9956C142.301 4.12176 145.455 0.967773 149.328 0.967773C153.202 0.967773 156.356 4.12176 156.356 7.9956C156.356 11.8694 153.202 15.0234 149.328 15.0234ZM149.328 4.48169C147.391 4.48169 145.818 6.05868 145.818 7.99189C145.818 9.9251 147.395 11.5021 149.328 11.5021C151.262 11.5021 152.839 9.9251 152.839 7.99189C152.839 6.05868 151.262 4.48169 149.328 4.48169Z" fill="#DAFF01"/>
<path d="M149.328 30.83C152.238 30.83 154.597 28.471 154.597 25.561C154.597 22.651 152.238 20.292 149.328 20.292C146.418 20.292 144.059 22.651 144.059 25.561C144.059 28.471 146.418 30.83 149.328 30.83Z" fill="#DAFF01"/>
<path d="M149.328 32.5928C145.451 32.5928 142.301 29.4388 142.301 25.5649C142.301 21.6911 145.455 18.5371 149.328 18.5371C153.202 18.5371 156.356 21.6911 156.356 25.5649C156.356 29.4388 153.202 32.5928 149.328 32.5928ZM149.328 22.051C147.391 22.051 145.818 23.628 145.818 25.5612C145.818 27.4944 147.395 29.0714 149.328 29.0714C151.262 29.0714 152.839 27.4944 152.839 25.5612C152.839 23.628 151.262 22.051 149.328 22.051Z" fill="#DAFF01"/>
</g>
<defs>
<clipPath id="clip0_66_12626">
<rect width="156.356" height="72" fill="white" transform="translate(0 0.5)"/>
</clipPath>
</defs>
</svg>
